<svg id="Capa_1" enable-background="new 0 0 512 512" height="512" viewBox="0 0 512 512" width="512" xmlns="http://www.w3.org/2000/svg"><path d="m470.844 335.607c-17.898 17.263-47.082 16.02-63.363-3.652-1.886-2.279-5.31-2.279-7.195 0-17.381 21-49.393 20.967-66.747 0-1.885-2.279-5.309-2.279-7.195 0-17.379 21-49.394 20.967-66.746 0-1.885-2.279-5.309-2.279-7.195 0-17.353 20.967-49.367 21-66.746 0-1.886-2.279-5.31-2.279-7.195 0-17.354 20.967-49.366 21-66.747 0-1.885-2.279-5.309-2.279-7.195 0-16.281 19.673-45.465 20.915-63.363 3.652-1.271-1.226-3.383-.364-3.383 1.402v58.586c0-1.766 2.112-2.628 3.383-1.402 17.898 17.263 47.082 16.02 63.363-3.652 1.886-2.279 5.31-2.279 7.195 0 17.381 21 49.393 20.967 66.747 0 1.885-2.279 5.309-2.279 7.195 0 17.379 21 49.394 20.967 66.746 0 1.886-2.279 5.31-2.279 7.195 0 17.353 20.967 49.367 21 66.746 0 1.886-2.279 5.31-2.279 7.195 0 17.354 20.967 49.366 21 66.747 0 1.885-2.279 5.309-2.279 7.195 0 16.281 19.673 45.465 20.915 63.363 3.652 1.271-1.226 3.383-.364 3.383 1.402v-58.586c0-1.766-2.112-2.628-3.383-1.402z" fill="#23a8fe"/><path d="m108.767 330.316c-1.533-.218-3.15.313-4.248 1.639-16.281 19.673-45.465 20.915-63.363 3.652-1.271-1.226-3.383-.364-3.383 1.402v58.586c0-1.766 2.112-2.628 3.383-1.402 17.898 17.263 47.082 16.02 63.363-3.652 1.098-1.326 2.715-1.857 4.248-1.639z" fill="#0193fa"/><path d="m279.909 0c-6.037 0-11.938.78-17.654 2.268-3.495.91-7.165.91-10.661 0-5.716-1.488-11.617-2.268-17.654-2.268-51.361 0-92.997 56.346-92.997 125.852 0 60.982 32.051 111.83 74.599 123.385l80.914.479c43.466-10.565 76.448-62.002 76.448-123.864.001-69.506-41.635-125.852-92.995-125.852z" fill="#685e68"/><path d="m242.726 247.096c-39.247-14.752-68.06-63.431-68.06-121.244 0-61.708 32.819-113.038 76.124-123.78-5.466-1.355-11.095-2.072-16.85-2.072-51.361 0-92.997 56.346-92.997 125.852 0 60.982 32.051 111.83 74.599 123.385l27.183.161v-2.302z" fill="#554e56"/><path d="m104.519 390.079c1.886-2.279 5.31-2.279 7.195 0 17.381 21 49.393 20.967 66.747 0 1.885-2.279 5.309-2.279 7.195 0 17.379 21 49.394 20.967 66.746 0 1.886-2.279 5.31-2.279 7.195 0 17.353 20.967 49.368 21 66.747 0 1.885-2.279 5.309-2.279 7.195 0 17.354 20.967 49.365 21 66.747 0 1.885-2.279 5.309-2.279 7.195 0 7.59 9.171 17.984 14.333 28.732 15.485v-37.995c0-28.285-17.997-53.436-44.769-62.565l-85.138-29.029c-5.89-2.009-9.849-7.542-9.849-13.764v-28.957c-11.387 7.474-24.971 11.844-39.533 11.844h-.001c-15.359 0-29.63-4.861-41.381-13.1v30.213c0 6.223-3.959 11.756-9.849 13.764l-85.138 29.029c-26.772 9.128-44.769 34.279-44.769 62.565v37.995c10.749-1.152 21.143-6.314 28.733-15.485z" fill="#ffbd86"/><path d="m109.509 380.348c0-28.285 17.997-53.436 44.769-62.565l85.138-29.029c5.89-2.009 9.849-7.542 9.849-13.764v-30.31c-12.433-1.327-23.95-5.831-33.722-12.682v30.213c0 6.223-3.959 11.756-9.849 13.764l-85.138 29.029c-26.772 9.128-44.769 34.279-44.769 62.565v37.995c10.747-1.153 21.142-6.314 28.732-15.485 1.278-1.544 3.257-2.016 4.99-1.467z" fill="#f6a96c"/><path d="m367.946 399.62c-10.052-15.603-28.443-54.54-25.157-111.205l-36.482-12.439c-.496-.169-.972-.372-1.439-.589v69.992c0 23.01-17.111 44.614-40.414 49.694 17.97 15.81 46.026 14.177 61.891-4.993 1.885-2.279 5.309-2.279 7.195 0 9.679 11.694 23.916 16.868 37.632 15.522-.915-2.057-1.986-4.058-3.226-5.982z" fill="#ff656f"/><path d="m207.133 345.379v-69.992c-.467.217-.943.42-1.439.589l-36.482 12.439c3.285 56.665-15.105 95.602-25.158 111.205-1.24 1.924-2.311 3.925-3.225 5.981 13.716 1.346 27.953-3.828 37.632-15.522 1.885-2.279 5.309-2.279 7.195 0 15.865 19.17 43.92 20.803 61.89 4.993-23.302-5.08-40.413-26.684-40.413-49.693z" fill="#ff656f"/><path d="m169.322 312.654 37.811-12.892v-24.375c-.467.217-.943.42-1.439.589l-36.482 12.439c.492 8.487.489 16.567.11 24.239z" fill="#ff4756"/><path d="m470.844 392.638c-17.898 17.263-47.082 16.02-63.363-3.652-1.886-2.279-5.31-2.279-7.195 0-17.381 21-49.393 20.967-66.747 0-1.885-2.279-5.309-2.279-7.195 0-17.379 21-49.394 20.967-66.746 0-1.885-2.279-5.309-2.279-7.195 0-17.353 20.967-49.367 21-66.746 0-1.886-2.279-5.31-2.279-7.195 0-17.354 20.967-49.366 21-66.747 0-1.885-2.279-5.309-2.279-7.195 0-16.281 19.673-45.465 20.915-63.363 3.652-1.271-1.226-3.383-.364-3.383 1.402v58.586c0-1.766 2.112-2.628 3.383-1.402 17.898 17.263 47.082 16.02 63.363-3.652 1.886-2.279 5.31-2.279 7.195 0 17.381 21 49.393 20.967 66.747 0 1.885-2.279 5.309-2.279 7.195 0 17.379 21 49.394 20.967 66.746 0 1.886-2.279 5.31-2.279 7.195 0 17.353 20.967 49.367 21 66.746 0 1.886-2.279 5.31-2.279 7.195 0 17.354 20.967 49.366 21 66.747 0 1.885-2.279 5.309-2.279 7.195 0 16.281 19.673 45.465 20.915 63.363 3.652 1.271-1.226 3.383-.364 3.383 1.402v-58.586c0-1.766-2.112-2.628-3.383-1.402z" fill="#60b8fe"/><path d="m108.767 387.347c-1.533-.218-3.15.313-4.248 1.639-16.281 19.673-45.465 20.915-63.363 3.652-1.271-1.226-3.383-.364-3.383 1.402v58.586c0-1.766 2.112-2.628 3.383-1.402 17.898 17.263 47.082 16.02 63.363-3.652 1.098-1.326 2.715-1.857 4.248-1.639z" fill="#23a8fe"/><path d="m470.844 448.59c-17.898 17.262-47.082 16.02-63.363-3.652-1.886-2.279-5.31-2.279-7.195 0-17.381 21-49.393 20.967-66.747 0-1.885-2.279-5.309-2.279-7.195 0-17.379 21-49.394 20.967-66.746 0-1.885-2.279-5.309-2.279-7.195 0-17.353 20.967-49.367 21-66.746 0-1.885-2.279-5.31-2.279-7.195 0-17.354 20.967-49.366 21-66.747 0-1.885-2.279-5.309-2.279-7.195 0-16.28 19.673-45.465 20.915-63.363 3.652-1.271-1.226-3.383-.364-3.383 1.402v47.892c0 7.796 6.32 14.116 14.116 14.116h408.222c7.796 0 14.116-6.32 14.116-14.116v-47.892c-.001-1.766-2.113-2.628-3.384-1.402z" fill="#8bcaff"/><path d="m108.767 500.013v-56.714c-1.533-.218-3.15.312-4.248 1.639-16.28 19.673-45.465 20.915-63.363 3.653-1.271-1.226-3.383-.364-3.383 1.402v47.892c0 7.796 6.32 14.116 14.116 14.116h63.564c-4.008-2.491-6.686-6.921-6.686-11.988z" fill="#60b8fe"/><path d="m328.273 124.403c15.845-2.6 31.053 9.636 31.053 25.434 0 15.768-15.174 28.038-31.053 25.433z" fill="#ffbd86"/><path d="m347.176 128.374c-5.415-3.462-12.098-5.087-18.902-3.971v50.867c6.813 1.118 13.492-.509 18.902-3.969z" fill="#f6a96c"/><path d="m279.823 75.008c-1.133-2.543-4.785-2.366-5.708.259-4.172 11.858-14.813 32.698-40.145 44.349-14.345 6.597-24.657 13.339-32.02 19.359-11.065 9.048-17.439 22.611-17.439 36.904 0 39.828 32.586 72.414 72.414 72.414 39.828 0 72.414-32.586 72.414-72.414v-51.476c-.001 0-34.593-15.902-49.516-49.395z" fill="#fed2a4"/><path d="m218.233 175.879c0-14.293 6.375-27.856 17.439-36.904 7.362-6.02 17.675-12.762 32.02-19.359 12.281-5.648 21.101-13.456 27.413-21.353-5.813-6.502-11.262-14.235-15.282-23.255-1.133-2.543-4.785-2.366-5.708.259-4.172 11.858-14.813 32.698-40.145 44.349-14.345 6.597-24.657 13.339-32.02 19.359-11.065 9.048-17.439 22.611-17.439 36.904 0 39.828 32.586 72.414 72.414 72.414 5.803 0 11.444-.711 16.861-2.016-31.763-7.652-55.553-36.373-55.553-70.398z" fill="#ffbd86"/></svg>